<svg width="60" height="37" viewBox="0 0 60 37" fill="none" xmlns="http://www.w3.org/2000/svg">
<path d="M23.5025 6.97519C23.7849 4.15083 26.1616 2 29 2V2C31.8384 2 34.2151 4.15083 34.4975 6.97519L34.7841 9.84133C34.8016 10.0156 34.8103 10.1028 34.8207 10.1886C34.9649 11.3717 35.3717 12.5077 36.0113 13.5135C36.0576 13.5865 36.1062 13.6593 36.2034 13.8051L37.0645 15.0968C37.8508 16.2763 38.244 16.866 38.0715 17.3412C38.0388 17.4311 37.9935 17.5158 37.9368 17.5928C37.6371 18 36.9283 18 35.5108 18H22.4892C21.0717 18 20.3629 18 20.0632 17.5928C20.0065 17.5158 19.9612 17.4311 19.9285 17.3412C19.756 16.866 20.1492 16.2763 20.9355 15.0968L21.7966 13.8051C21.8938 13.6593 21.9424 13.5865 21.9887 13.5135C22.6283 12.5077 23.0351 11.3717 23.1793 10.1886C23.1897 10.1028 23.1984 10.0156 23.2159 9.84133L23.5025 6.97519Z" fill="white"/>
<path d="M27.0681 20.6294C27.1821 20.7357 27.4332 20.8297 27.7825 20.8967C28.1318 20.9637 28.5597 21 29 21C29.4403 21 29.8682 20.9637 30.2175 20.8967C30.5668 20.8297 30.8179 20.7357 30.9319 20.6294" stroke="white" stroke-width="2" stroke-linecap="round"/>
<path d="M0.0867962 36V29H1.3468L4.4368 34.82V29H5.3368V36H4.0968L0.986796 30.22V36H0.0867962ZM9.34758 36.12C8.85425 36.12 8.41091 36.0067 8.01758 35.78C7.62425 35.5467 7.31425 35.2267 7.08758 34.82C6.86758 34.4067 6.75758 33.9333 6.75758 33.4C6.75758 32.84 6.87091 32.3567 7.09758 31.95C7.32424 31.5433 7.63424 31.23 8.02758 31.01C8.42091 30.79 8.86091 30.68 9.34758 30.68C9.83425 30.68 10.2709 30.79 10.6576 31.01C11.0509 31.23 11.3609 31.5433 11.5876 31.95C11.8209 32.35 11.9376 32.8267 11.9376 33.38C11.9376 33.9333 11.8242 34.4167 11.5976 34.83C11.3709 35.2367 11.0609 35.5533 10.6676 35.78C10.2809 36.0067 9.84091 36.12 9.34758 36.12ZM9.34758 35.32C9.87425 35.32 10.2842 35.1433 10.5776 34.79C10.8709 34.43 11.0176 33.9667 11.0176 33.4C11.0176 33.0533 10.9442 32.7367 10.7976 32.45C10.6509 32.1567 10.4509 31.9233 10.1976 31.75C9.95091 31.57 9.66758 31.48 9.34758 31.48C8.82091 31.48 8.41091 31.6533 8.11758 32C7.82424 32.3467 7.67758 32.8067 7.67758 33.38C7.67758 33.7267 7.75091 34.05 7.89758 34.35C8.04425 34.6433 8.24091 34.88 8.48758 35.06C8.74091 35.2333 9.02758 35.32 9.34758 35.32ZM15.0741 36.12C14.5741 36.12 14.1775 35.9567 13.8841 35.63C13.5975 35.2967 13.4541 34.8233 13.4541 34.21V31.77H12.5541V30.99H13.4741L13.6641 29.35H14.3541V30.99H15.7941V31.77H14.3541V34.28C14.3541 34.6667 14.4341 34.9367 14.5941 35.09C14.7608 35.2433 14.9575 35.32 15.1841 35.32C15.3508 35.32 15.5075 35.2933 15.6541 35.24C15.8075 35.1867 15.9475 35.1233 16.0741 35.05L16.3241 35.77C16.1908 35.85 16.0108 35.9267 15.7841 36C15.5575 36.08 15.3208 36.12 15.0741 36.12ZM17.3488 36V30.8H18.2488V36H17.3488ZM17.7988 29.91C17.6254 29.91 17.4754 29.8467 17.3488 29.72C17.2288 29.5933 17.1688 29.4467 17.1688 29.28C17.1688 29.0867 17.2254 28.9333 17.3388 28.82C17.4521 28.7067 17.6054 28.65 17.7988 28.65C17.9721 28.65 18.1188 28.7133 18.2388 28.84C18.3654 28.96 18.4288 29.1067 18.4288 29.28C18.4288 29.4667 18.3721 29.62 18.2588 29.74C18.1454 29.8533 17.9921 29.91 17.7988 29.91ZM20.0687 36V31.77H19.2687V30.99H20.0687V30.38C20.0687 29.7933 20.2321 29.33 20.5587 28.99C20.8854 28.65 21.3121 28.48 21.8387 28.48C22.1121 28.48 22.3521 28.5133 22.5587 28.58C22.7654 28.64 22.9621 28.7167 23.1487 28.81L22.8787 29.57C22.7387 29.4967 22.5887 29.43 22.4287 29.37C22.2687 29.31 22.0921 29.28 21.8987 29.28C21.6187 29.28 21.3921 29.37 21.2187 29.55C21.0521 29.7233 20.9687 29.98 20.9687 30.32V30.99H22.5087V31.77H20.9687V36H20.0687ZM23.5653 36V30.8H24.4653V36H23.5653ZM24.0153 29.91C23.842 29.91 23.692 29.8467 23.5653 29.72C23.4453 29.5933 23.3853 29.4467 23.3853 29.28C23.3853 29.0867 23.442 28.9333 23.5553 28.82C23.6686 28.7067 23.822 28.65 24.0153 28.65C24.1886 28.65 24.3353 28.7133 24.4553 28.84C24.582 28.96 24.6453 29.1067 24.6453 29.28C24.6453 29.4667 24.5886 29.62 24.4753 29.74C24.362 29.8533 24.2086 29.91 24.0153 29.91ZM28.2853 36.12C27.792 36.12 27.3586 36.0067 26.9853 35.78C26.6186 35.5467 26.3353 35.2267 26.1353 34.82C25.9353 34.4067 25.8353 33.9333 25.8353 33.4C25.8353 32.9 25.9353 32.4433 26.1353 32.03C26.342 31.6167 26.6353 31.29 27.0153 31.05C27.3953 30.8033 27.842 30.68 28.3553 30.68C28.6486 30.68 28.9053 30.7067 29.1253 30.76C29.352 30.8133 29.5686 30.89 29.7753 30.99L29.5053 31.75C29.3186 31.6567 29.1386 31.59 28.9653 31.55C28.7986 31.5033 28.612 31.48 28.4053 31.48C27.9386 31.48 27.5453 31.65 27.2253 31.99C26.912 32.3233 26.7553 32.7867 26.7553 33.38C26.7553 33.74 26.822 34.0667 26.9553 34.36C27.0886 34.6533 27.272 34.8867 27.5053 35.06C27.7453 35.2333 28.0253 35.32 28.3453 35.32C28.5986 35.32 28.8153 35.2933 28.9953 35.24C29.1753 35.18 29.3686 35.0967 29.5753 34.99L29.8553 35.75C29.6486 35.8633 29.4153 35.9533 29.1553 36.02C28.902 36.0867 28.612 36.12 28.2853 36.12ZM32.9145 36.12C32.4811 36.12 32.0878 36.01 31.7345 35.79C31.3811 35.57 31.0978 35.26 30.8845 34.86C30.6778 34.4533 30.5745 33.9767 30.5745 33.43C30.5745 32.91 30.6778 32.4433 30.8845 32.03C31.0978 31.6167 31.3878 31.29 31.7545 31.05C32.1278 30.8033 32.5545 30.68 33.0345 30.68C33.3345 30.68 33.6045 30.7333 33.8445 30.84C34.0911 30.94 34.3045 31.0667 34.4845 31.22V30.8H35.3045V34.74C35.3045 34.9933 35.3645 35.16 35.4845 35.24C35.6111 35.3133 35.7478 35.35 35.8945 35.35L35.7045 36.05C35.0645 36.05 34.6778 35.79 34.5445 35.27C34.3911 35.4833 34.1811 35.68 33.9145 35.86C33.6545 36.0333 33.3211 36.12 32.9145 36.12ZM33.1145 35.32C33.3678 35.32 33.6078 35.26 33.8345 35.14C34.0611 35.0133 34.2511 34.8567 34.4045 34.67V31.88C34.2245 31.7533 34.0245 31.6533 33.8045 31.58C33.5911 31.5 33.3645 31.46 33.1245 31.46C32.8045 31.46 32.5211 31.5433 32.2745 31.71C32.0345 31.87 31.8445 32.0967 31.7045 32.39C31.5645 32.6767 31.4945 33.0133 31.4945 33.4C31.4945 33.7733 31.5645 34.1067 31.7045 34.4C31.8445 34.6867 32.0378 34.9133 32.2845 35.08C32.5311 35.24 32.8078 35.32 33.1145 35.32ZM39.0363 36.12C38.5363 36.12 38.1397 35.9567 37.8463 35.63C37.5597 35.2967 37.4163 34.8233 37.4163 34.21V31.77H36.5163V30.99H37.4363L37.6263 29.35H38.3163V30.99H39.7563V31.77H38.3163V34.28C38.3163 34.6667 38.3963 34.9367 38.5563 35.09C38.723 35.2433 38.9197 35.32 39.1463 35.32C39.313 35.32 39.4697 35.2933 39.6163 35.24C39.7697 35.1867 39.9097 35.1233 40.0363 35.05L40.2863 35.77C40.153 35.85 39.973 35.9267 39.7463 36C39.5197 36.08 39.283 36.12 39.0363 36.12ZM41.3109 36V30.8H42.2109V36H41.3109ZM41.7609 29.91C41.5876 29.91 41.4376 29.8467 41.3109 29.72C41.1909 29.5933 41.1309 29.4467 41.1309 29.28C41.1309 29.0867 41.1876 28.9333 41.3009 28.82C41.4143 28.7067 41.5676 28.65 41.7609 28.65C41.9343 28.65 42.0809 28.7133 42.2009 28.84C42.3276 28.96 42.3909 29.1067 42.3909 29.28C42.3909 29.4667 42.3343 29.62 42.2209 29.74C42.1076 29.8533 41.9543 29.91 41.7609 29.91ZM46.1209 36.12C45.6276 36.12 45.1843 36.0067 44.7909 35.78C44.3976 35.5467 44.0876 35.2267 43.8609 34.82C43.6409 34.4067 43.5309 33.9333 43.5309 33.4C43.5309 32.84 43.6443 32.3567 43.8709 31.95C44.0976 31.5433 44.4076 31.23 44.8009 31.01C45.1943 30.79 45.6343 30.68 46.1209 30.68C46.6076 30.68 47.0443 30.79 47.4309 31.01C47.8243 31.23 48.1343 31.5433 48.3609 31.95C48.5943 32.35 48.7109 32.8267 48.7109 33.38C48.7109 33.9333 48.5976 34.4167 48.3709 34.83C48.1443 35.2367 47.8343 35.5533 47.4409 35.78C47.0543 36.0067 46.6143 36.12 46.1209 36.12ZM46.1209 35.32C46.6476 35.32 47.0576 35.1433 47.3509 34.79C47.6443 34.43 47.7909 33.9667 47.7909 33.4C47.7909 33.0533 47.7176 32.7367 47.5709 32.45C47.4243 32.1567 47.2243 31.9233 46.9709 31.75C46.7243 31.57 46.4409 31.48 46.1209 31.48C45.5943 31.48 45.1843 31.6533 44.8909 32C44.5976 32.3467 44.4509 32.8067 44.4509 33.38C44.4509 33.7267 44.5243 34.05 44.6709 34.35C44.8176 34.6433 45.0143 34.88 45.2609 35.06C45.5143 35.2333 45.8009 35.32 46.1209 35.32ZM50.0275 36V30.8H50.8975V31.67C51.0842 31.39 51.3208 31.1567 51.6075 30.97C51.9008 30.7767 52.2475 30.68 52.6475 30.68C53.2342 30.68 53.6708 30.8567 53.9575 31.21C54.2508 31.5633 54.3975 32.03 54.3975 32.61V36H53.4975V32.71C53.4975 32.3367 53.4075 32.0367 53.2275 31.81C53.0542 31.5833 52.8108 31.47 52.4975 31.47C52.1908 31.47 51.9008 31.58 51.6275 31.8C51.3542 32.0133 51.1208 32.2667 50.9275 32.56V36H50.0275ZM57.4655 36.12C57.0721 36.12 56.7155 36.07 56.3955 35.97C56.0821 35.87 55.8221 35.74 55.6155 35.58L55.9955 34.83C56.1688 34.9767 56.3855 35.1 56.6455 35.2C56.9121 35.2933 57.1955 35.34 57.4955 35.34C57.8688 35.34 58.1488 35.28 58.3355 35.16C58.5288 35.0333 58.6255 34.8733 58.6255 34.68C58.6255 34.54 58.5888 34.4167 58.5155 34.31C58.4488 34.2033 58.3221 34.1 58.1355 34C57.9488 33.8933 57.6788 33.78 57.3255 33.66C56.8388 33.4933 56.4721 33.2967 56.2255 33.07C55.9855 32.8367 55.8655 32.5167 55.8655 32.11C55.8655 31.71 56.0388 31.3733 56.3855 31.1C56.7388 30.82 57.2255 30.68 57.8455 30.68C58.1788 30.68 58.4755 30.7167 58.7355 30.79C58.9955 30.8567 59.2288 30.9433 59.4355 31.05L59.1855 31.79C59.0055 31.6833 58.7988 31.5967 58.5655 31.53C58.3388 31.4633 58.0855 31.43 57.8055 31.43C57.4588 31.43 57.1955 31.5 57.0155 31.64C56.8355 31.78 56.7455 31.9333 56.7455 32.1C56.7455 32.26 56.8155 32.3967 56.9555 32.51C57.0955 32.6233 57.3688 32.7467 57.7755 32.88C58.4355 33.1 58.8955 33.3433 59.1555 33.61C59.4155 33.8767 59.5455 34.21 59.5455 34.61C59.5455 35.0767 59.3555 35.4467 58.9755 35.72C58.6021 35.9867 58.0988 36.12 57.4655 36.12Z" fill="white" fill-opacity="0.87"/>
</svg>
