<svg width="35" height="40" viewBox="0 0 35 40" fill="none" xmlns="http://www.w3.org/2000/svg">
<path fill-rule="evenodd" clip-rule="evenodd" d="M11.2745 10.1261C11 10.7229 11 11.4018 11 12.7595V16.9999C11 18.8855 11 19.8283 11.5858 20.4141C12.1173 20.9457 12.9428 20.9949 14.5 20.9994V16C14.5 14.8954 15.3954 14 16.5 14H19.5C20.6046 14 21.5 14.8954 21.5 16V20.9994C23.0572 20.9949 23.8827 20.9457 24.4142 20.4141C25 19.8283 25 18.8855 25 16.9999V12.7595C25 11.4018 25 10.7229 24.7255 10.1261C24.4511 9.5294 23.9356 9.08759 22.9047 8.20398L21.9047 7.34683C20.0414 5.74971 19.1098 4.95114 18 4.95114C16.8902 4.95114 15.9586 5.74971 14.0953 7.34684L13.0953 8.20398C12.0644 9.08759 11.5489 9.5294 11.2745 10.1261ZM19.5 20.9999V16H16.5V20.9999H19.5Z" fill="white"/>
<path d="M6.4902 39.1L5.7102 37.1H2.4702L1.6902 39.08L0.880195 38.75L3.6202 32H4.6602L7.3602 38.75L6.4902 39.1ZM2.7702 36.3H5.4002L4.0902 32.94L2.7702 36.3ZM10.4799 39.12C9.98655 39.12 9.55322 39.0066 9.17988 38.78C8.81322 38.5466 8.52988 38.2266 8.32988 37.82C8.12988 37.4066 8.02988 36.9333 8.02988 36.4C8.02988 35.9 8.12988 35.4433 8.32988 35.03C8.53655 34.6166 8.82988 34.29 9.20988 34.05C9.58988 33.8033 10.0366 33.68 10.5499 33.68C10.8432 33.68 11.0999 33.7066 11.3199 33.76C11.5466 33.8133 11.7632 33.89 11.9699 33.99L11.6999 34.75C11.5132 34.6566 11.3332 34.59 11.1599 34.55C10.9932 34.5033 10.8066 34.48 10.5999 34.48C10.1332 34.48 9.73988 34.65 9.41988 34.99C9.10655 35.3233 8.94988 35.7866 8.94988 36.38C8.94988 36.74 9.01655 37.0666 9.14988 37.36C9.28322 37.6533 9.46655 37.8866 9.69988 38.06C9.93988 38.2333 10.2199 38.32 10.5399 38.32C10.7932 38.32 11.0099 38.2933 11.1899 38.24C11.3699 38.18 11.5632 38.0966 11.7699 37.99L12.0499 38.75C11.8432 38.8633 11.6099 38.9533 11.3499 39.02C11.0966 39.0866 10.8066 39.12 10.4799 39.12ZM15.219 39.12C14.7257 39.12 14.2924 39.0066 13.919 38.78C13.5524 38.5466 13.269 38.2266 13.069 37.82C12.869 37.4066 12.769 36.9333 12.769 36.4C12.769 35.9 12.869 35.4433 13.069 35.03C13.2757 34.6166 13.569 34.29 13.949 34.05C14.329 33.8033 14.7757 33.68 15.289 33.68C15.5824 33.68 15.839 33.7066 16.059 33.76C16.2857 33.8133 16.5024 33.89 16.709 33.99L16.439 34.75C16.2524 34.6566 16.0724 34.59 15.899 34.55C15.7324 34.5033 15.5457 34.48 15.339 34.48C14.8724 34.48 14.479 34.65 14.159 34.99C13.8457 35.3233 13.689 35.7866 13.689 36.38C13.689 36.74 13.7557 37.0666 13.889 37.36C14.0224 37.6533 14.2057 37.8866 14.439 38.06C14.679 38.2333 14.959 38.32 15.279 38.32C15.5324 38.32 15.749 38.2933 15.929 38.24C16.109 38.18 16.3024 38.0966 16.509 37.99L16.789 38.75C16.5824 38.8633 16.349 38.9533 16.089 39.02C15.8357 39.0866 15.5457 39.12 15.219 39.12ZM19.6558 39.12C19.3558 39.12 19.0725 39.0566 18.8058 38.93C18.5392 38.8033 18.3225 38.6 18.1558 38.32C17.9892 38.0333 17.9058 37.6533 17.9058 37.18V33.8H18.8058V37.06C18.8058 37.4666 18.8925 37.78 19.0658 38C19.2392 38.2133 19.4925 38.32 19.8258 38.32C20.0992 38.32 20.3625 38.2666 20.6158 38.16C20.8758 38.0466 21.1058 37.8966 21.3058 37.71V33.8H22.2058V37.65C22.2058 37.9366 22.2658 38.1266 22.3858 38.22C22.5125 38.3066 22.6492 38.35 22.7958 38.35L22.6058 39.05C21.9858 39.05 21.6025 38.8033 21.4558 38.31C21.2225 38.55 20.9525 38.7466 20.6458 38.9C20.3392 39.0466 20.0092 39.12 19.6558 39.12ZM26.0933 39.12C25.3467 39.12 24.7533 38.8833 24.3133 38.41C23.88 37.93 23.6633 37.26 23.6633 36.4C23.6633 35.88 23.76 35.4166 23.9533 35.01C24.1533 34.5966 24.43 34.2733 24.7833 34.04C25.1367 33.8 25.5467 33.68 26.0133 33.68C26.5133 33.68 26.9267 33.79 27.2533 34.01C27.5867 34.2233 27.8367 34.5133 28.0033 34.88C28.17 35.2466 28.2533 35.65 28.2533 36.09C28.2533 36.3233 28.2433 36.55 28.2233 36.77H24.5833C24.6433 37.2566 24.8133 37.6366 25.0933 37.91C25.3733 38.1833 25.7433 38.32 26.2033 38.32C26.5033 38.32 26.7733 38.29 27.0133 38.23C27.2533 38.1633 27.4833 38.08 27.7033 37.98L27.9133 38.75C27.6733 38.8566 27.4033 38.9433 27.1033 39.01C26.8033 39.0833 26.4667 39.12 26.0933 39.12ZM24.5733 36.04H27.4233C27.4233 35.5333 27.2967 35.1433 27.0433 34.87C26.79 34.5966 26.44 34.46 25.9933 34.46C25.6067 34.46 25.2867 34.5966 25.0333 34.87C24.78 35.1366 24.6267 35.5266 24.5733 36.04ZM29.5728 39V33.8H30.4728V39H29.5728ZM30.0228 32.91C29.8494 32.91 29.6994 32.8466 29.5728 32.72C29.4528 32.5933 29.3928 32.4466 29.3928 32.28C29.3928 32.0866 29.4494 31.9333 29.5628 31.82C29.6761 31.7066 29.8294 31.65 30.0228 31.65C30.1961 31.65 30.3428 31.7133 30.4628 31.84C30.5894 31.96 30.6528 32.1066 30.6528 32.28C30.6528 32.4666 30.5961 32.62 30.4828 32.74C30.3694 32.8533 30.2161 32.91 30.0228 32.91ZM33.7728 39.12C33.4661 39.12 33.1894 39.0633 32.9428 38.95C32.6961 38.83 32.4994 38.64 32.3528 38.38C32.2128 38.12 32.1428 37.7833 32.1428 37.37V31.6H33.0428V37.28C33.0428 37.64 33.1161 37.9066 33.2628 38.08C33.4161 38.2533 33.6261 38.34 33.8928 38.34C34.0194 38.34 34.1428 38.3266 34.2628 38.3C34.3894 38.2666 34.4961 38.23 34.5828 38.19L34.8028 38.92C34.6828 38.9733 34.5328 39.02 34.3528 39.06C34.1794 39.1 33.9861 39.12 33.7728 39.12Z" fill="white"/>
</svg>
