<svg width="52" height="39" viewBox="0 0 52 39" fill="none" xmlns="http://www.w3.org/2000/svg">
<path fill-rule="evenodd" clip-rule="evenodd" d="M24.5416 18C28.2466 18 31.25 14.866 31.25 11C31.25 7.13401 28.2466 4 24.5416 4C20.8367 4 17.8333 7.13401 17.8333 11C17.8333 14.866 20.8367 18 24.5416 18ZM24.5416 6C23.9009 6 23.2675 6.13176 22.6779 6.38655C22.0885 6.64131 21.5558 7.01348 21.1091 7.47967C20.6624 7.94576 20.3102 8.49681 20.0707 9.10032C19.8311 9.70377 19.7083 10.3492 19.7083 11C19.7083 11.5523 20.156 12 20.7083 12C21.2606 12 21.7083 11.5523 21.7083 11C21.7083 10.6003 21.7838 10.2054 21.9296 9.83822C22.0753 9.47112 22.2878 9.14025 22.5531 8.86348C22.8182 8.58679 23.1307 8.3697 23.4714 8.22241C23.8121 8.07517 24.1756 8 24.5416 8C25.0939 8 25.5416 7.55228 25.5416 7C25.5416 6.44772 25.0939 6 24.5416 6Z" fill="white"/>
<path d="M33.1667 20L31.25 18" stroke="white" stroke-width="2" stroke-linecap="round"/>
<path d="M4.28234 38.12L3.41234 36.22C3.19234 35.7466 2.91568 35.41 2.58234 35.21C2.24901 35.01 1.82234 34.91 1.30234 34.91H1.15234V38H0.202343V31.02C0.555677 30.9866 0.892343 30.9633 1.21234 30.95C1.53901 30.93 1.88568 30.92 2.25234 30.92C3.10568 30.92 3.74568 31.0933 4.17234 31.44C4.60568 31.7866 4.82234 32.2333 4.82234 32.78C4.82234 33.2666 4.67568 33.66 4.38234 33.96C4.09568 34.2533 3.67901 34.4733 3.13234 34.62C3.31234 34.7 3.47234 34.7966 3.61234 34.91C3.75234 35.0166 3.88568 35.1633 4.01234 35.35C4.14568 35.53 4.27901 35.7666 4.41234 36.06L5.17234 37.7L4.28234 38.12ZM1.15234 34.11H2.25234C2.73234 34.11 3.12234 34.0033 3.42234 33.79C3.72234 33.5766 3.87234 33.27 3.87234 32.87C3.87234 32.5366 3.73234 32.2633 3.45234 32.05C3.17234 31.83 2.77234 31.72 2.25234 31.72C2.02568 31.72 1.82234 31.7233 1.64234 31.73C1.46234 31.7366 1.29901 31.7466 1.15234 31.76V34.11ZM8.47422 38.12C7.72755 38.12 7.13422 37.8833 6.69422 37.41C6.26089 36.93 6.04422 36.26 6.04422 35.4C6.04422 34.88 6.14089 34.4166 6.33422 34.01C6.53422 33.5966 6.81089 33.2733 7.16422 33.04C7.51755 32.8 7.92755 32.68 8.39422 32.68C8.89422 32.68 9.30755 32.79 9.63422 33.01C9.96755 33.2233 10.2176 33.5133 10.3842 33.88C10.5509 34.2466 10.6342 34.65 10.6342 35.09C10.6342 35.3233 10.6242 35.55 10.6042 35.77H6.96422C7.02422 36.2566 7.19422 36.6366 7.47422 36.91C7.75422 37.1833 8.12422 37.32 8.58422 37.32C8.88422 37.32 9.15422 37.29 9.39422 37.23C9.63422 37.1633 9.86422 37.08 10.0842 36.98L10.2942 37.75C10.0542 37.8566 9.78422 37.9433 9.48422 38.01C9.18422 38.0833 8.84755 38.12 8.47422 38.12ZM6.95422 35.04H9.80422C9.80422 34.5333 9.67755 34.1433 9.42422 33.87C9.17089 33.5966 8.82089 33.46 8.37422 33.46C7.98755 33.46 7.66755 33.5966 7.41422 33.87C7.16089 34.1366 7.00755 34.5266 6.95422 35.04ZM14.0537 38.12C13.5603 38.12 13.127 38.0066 12.7537 37.78C12.387 37.5466 12.1037 37.2266 11.9037 36.82C11.7037 36.4066 11.6037 35.9333 11.6037 35.4C11.6037 34.9 11.7037 34.4433 11.9037 34.03C12.1103 33.6166 12.4037 33.29 12.7837 33.05C13.1637 32.8033 13.6103 32.68 14.1237 32.68C14.417 32.68 14.6737 32.7066 14.8937 32.76C15.1203 32.8133 15.337 32.89 15.5437 32.99L15.2737 33.75C15.087 33.6566 14.907 33.59 14.7337 33.55C14.567 33.5033 14.3803 33.48 14.1737 33.48C13.707 33.48 13.3137 33.65 12.9937 33.99C12.6803 34.3233 12.5237 34.7866 12.5237 35.38C12.5237 35.74 12.5903 36.0666 12.7237 36.36C12.857 36.6533 13.0403 36.8866 13.2737 37.06C13.5137 37.2333 13.7937 37.32 14.1137 37.32C14.367 37.32 14.5837 37.2933 14.7637 37.24C14.9437 37.18 15.137 37.0966 15.3437 36.99L15.6237 37.75C15.417 37.8633 15.1837 37.9533 14.9237 38.02C14.6703 38.0866 14.3803 38.12 14.0537 38.12ZM16.7905 38V30.6H17.6905V33.63C17.8771 33.3566 18.1138 33.13 18.4005 32.95C18.6871 32.77 19.0238 32.68 19.4105 32.68C19.9971 32.68 20.4338 32.8566 20.7205 33.21C21.0138 33.5633 21.1605 34.03 21.1605 34.61V38H20.2605V34.71C20.2605 34.3366 20.1738 34.0366 20.0005 33.81C19.8271 33.5833 19.5838 33.47 19.2705 33.47C18.9638 33.47 18.6705 33.58 18.3905 33.8C18.1171 34.0133 17.8838 34.2666 17.6905 34.56V38H16.7905ZM24.9084 38.12C24.1618 38.12 23.5684 37.8833 23.1284 37.41C22.6951 36.93 22.4784 36.26 22.4784 35.4C22.4784 34.88 22.5751 34.4166 22.7684 34.01C22.9684 33.5966 23.2451 33.2733 23.5984 33.04C23.9518 32.8 24.3618 32.68 24.8284 32.68C25.3284 32.68 25.7418 32.79 26.0684 33.01C26.4018 33.2233 26.6518 33.5133 26.8184 33.88C26.9851 34.2466 27.0684 34.65 27.0684 35.09C27.0684 35.3233 27.0584 35.55 27.0384 35.77H23.3984C23.4584 36.2566 23.6284 36.6366 23.9084 36.91C24.1884 37.1833 24.5584 37.32 25.0184 37.32C25.3184 37.32 25.5884 37.29 25.8284 37.23C26.0684 37.1633 26.2984 37.08 26.5184 36.98L26.7284 37.75C26.4884 37.8566 26.2184 37.9433 25.9184 38.01C25.6184 38.0833 25.2818 38.12 24.9084 38.12ZM23.3884 35.04H26.2384C26.2384 34.5333 26.1118 34.1433 25.8584 33.87C25.6051 33.5966 25.2551 33.46 24.8084 33.46C24.4218 33.46 24.1018 33.5966 23.8484 33.87C23.5951 34.1366 23.4418 34.5266 23.3884 35.04ZM28.3879 38V32.8H29.2579V33.93C29.3446 33.71 29.4612 33.5066 29.6079 33.32C29.7546 33.1266 29.9379 32.9733 30.1579 32.86C30.3779 32.74 30.6346 32.68 30.9279 32.68C31.0279 32.68 31.1279 32.6866 31.2279 32.7C31.3279 32.7066 31.4112 32.72 31.4779 32.74L31.2079 33.67C31.0812 33.6166 30.9312 33.59 30.7579 33.59C30.5112 33.59 30.2746 33.66 30.0479 33.8C29.8279 33.94 29.6446 34.1566 29.4979 34.45C29.3579 34.7433 29.2879 35.1166 29.2879 35.57V38H28.3879ZM34.2993 38.12C33.806 38.12 33.3726 38.0066 32.9993 37.78C32.6326 37.5466 32.3493 37.2266 32.1493 36.82C31.9493 36.4066 31.8493 35.9333 31.8493 35.4C31.8493 34.9 31.9493 34.4433 32.1493 34.03C32.356 33.6166 32.6493 33.29 33.0293 33.05C33.4093 32.8033 33.856 32.68 34.3693 32.68C34.6626 32.68 34.9193 32.7066 35.1393 32.76C35.366 32.8133 35.5826 32.89 35.7893 32.99L35.5193 33.75C35.3326 33.6566 35.1526 33.59 34.9793 33.55C34.8126 33.5033 34.626 33.48 34.4193 33.48C33.9526 33.48 33.5593 33.65 33.2393 33.99C32.926 34.3233 32.7693 34.7866 32.7693 35.38C32.7693 35.74 32.836 36.0666 32.9693 36.36C33.1026 36.6533 33.286 36.8866 33.5193 37.06C33.7593 37.2333 34.0393 37.32 34.3593 37.32C34.6126 37.32 34.8293 37.2933 35.0093 37.24C35.1893 37.18 35.3826 37.0966 35.5893 36.99L35.8693 37.75C35.6626 37.8633 35.4293 37.9533 35.1693 38.02C34.916 38.0866 34.626 38.12 34.2993 38.12ZM37.0361 38V30.6H37.9361V33.63C38.1228 33.3566 38.3594 33.13 38.6461 32.95C38.9328 32.77 39.2694 32.68 39.6561 32.68C40.2428 32.68 40.6794 32.8566 40.9661 33.21C41.2594 33.5633 41.4061 34.03 41.4061 34.61V38H40.5061V34.71C40.5061 34.3366 40.4194 34.0366 40.2461 33.81C40.0728 33.5833 39.8294 33.47 39.5161 33.47C39.2094 33.47 38.9161 33.58 38.6361 33.8C38.3628 34.0133 38.1294 34.2666 37.9361 34.56V38H37.0361ZM45.1541 38.12C44.4074 38.12 43.8141 37.8833 43.3741 37.41C42.9407 36.93 42.7241 36.26 42.7241 35.4C42.7241 34.88 42.8207 34.4166 43.0141 34.01C43.2141 33.5966 43.4907 33.2733 43.8441 33.04C44.1974 32.8 44.6074 32.68 45.0741 32.68C45.5741 32.68 45.9874 32.79 46.3141 33.01C46.6474 33.2233 46.8974 33.5133 47.0641 33.88C47.2307 34.2466 47.3141 34.65 47.3141 35.09C47.3141 35.3233 47.3041 35.55 47.2841 35.77H43.6441C43.7041 36.2566 43.8741 36.6366 44.1541 36.91C44.4341 37.1833 44.8041 37.32 45.2641 37.32C45.5641 37.32 45.8341 37.29 46.0741 37.23C46.3141 37.1633 46.5441 37.08 46.7641 36.98L46.9741 37.75C46.7341 37.8566 46.4641 37.9433 46.1641 38.01C45.8641 38.0833 45.5274 38.12 45.1541 38.12ZM43.6341 35.04H46.4841C46.4841 34.5333 46.3574 34.1433 46.1041 33.87C45.8507 33.5966 45.5007 33.46 45.0541 33.46C44.6674 33.46 44.3474 33.5966 44.0941 33.87C43.8407 34.1366 43.6874 34.5266 43.6341 35.04ZM48.6335 38V32.8H49.5035V33.93C49.5902 33.71 49.7069 33.5066 49.8535 33.32C50.0002 33.1266 50.1835 32.9733 50.4035 32.86C50.6235 32.74 50.8802 32.68 51.1735 32.68C51.2735 32.68 51.3735 32.6866 51.4735 32.7C51.5735 32.7066 51.6569 32.72 51.7235 32.74L51.4535 33.67C51.3269 33.6166 51.1769 33.59 51.0035 33.59C50.7569 33.59 50.5202 33.66 50.2935 33.8C50.0735 33.94 49.8902 34.1566 49.7435 34.45C49.6035 34.7433 49.5335 35.1166 49.5335 35.57V38H48.6335Z" fill="white" fill-opacity="0.87"/>
</svg>
