<svg width="60" height="39" viewBox="0 0 60 39" fill="none" xmlns="http://www.w3.org/2000/svg">
<path fill-rule="evenodd" clip-rule="evenodd" d="M20.75 9.66666C20.75 5.89542 20.75 4.0098 21.9216 2.83823C23.0931 1.66666 24.9788 1.66666 28.75 1.66666H30.25C34.0212 1.66666 35.9069 1.66666 37.0784 2.83823C38.25 4.0098 38.25 5.89542 38.25 9.66666V10.3333C38.25 14.1046 38.25 15.9902 37.0784 17.1617C35.9069 18.3333 34.0212 18.3333 30.25 18.3333H28.75C24.9788 18.3333 23.0931 18.3333 21.9216 17.1617C20.75 15.9902 20.75 14.1046 20.75 10.3333V9.66666ZM25.714 13.5592C26.8054 12.7616 28.1362 12.3333 29.5 12.3333C30.8638 12.3333 32.1946 12.7616 33.286 13.5592C34.3782 14.3573 35.1722 15.4832 35.5337 16.7684C35.6833 17.3 35.3736 17.8523 34.8419 18.0019C34.3103 18.1514 33.7581 17.8417 33.6085 17.3101C33.3718 16.4689 32.8476 15.7159 32.106 15.1739C31.3636 14.6314 30.4476 14.3333 29.5 14.3333C28.5524 14.3333 27.6364 14.6314 26.894 15.1739C26.1524 15.7159 25.6282 16.4689 25.3915 17.3101C25.2419 17.8417 24.6897 18.1514 24.1581 18.0019C23.6264 17.8523 23.3167 17.3 23.4663 16.7684C23.8278 15.4832 24.6218 14.3573 25.714 13.5592ZM27.875 7.49999C27.875 6.71698 28.556 5.99999 29.5 5.99999C30.444 5.99999 31.125 6.71698 31.125 7.49999C31.125 8.283 30.444 8.99999 29.5 8.99999C28.556 8.99999 27.875 8.283 27.875 7.49999ZM29.5 3.99999C27.5445 3.99999 25.875 5.52158 25.875 7.49999C25.875 9.4784 27.5445 11 29.5 11C31.4555 11 33.125 9.4784 33.125 7.49999C33.125 5.52158 31.4555 3.99999 29.5 3.99999Z" fill="white"/>
<rect x="21.25" y="2.16666" width="16.5" height="15.6667" rx="3.5" stroke="#FEF8F8"/>
<path d="M0.252148 36V29H1.58215L3.52215 33.43L5.43215 29H6.79215V36H5.84215V30.21L3.97215 34.42H3.03215L1.15215 30.21V36H0.252148ZM10.802 36.12C10.3087 36.12 9.86533 36.0067 9.47199 35.78C9.07866 35.5467 8.76866 35.2267 8.54199 34.82C8.32199 34.4067 8.21199 33.9333 8.21199 33.4C8.21199 32.84 8.32533 32.3567 8.55199 31.95C8.77866 31.5433 9.08866 31.23 9.48199 31.01C9.87533 30.79 10.3153 30.68 10.802 30.68C11.2887 30.68 11.7253 30.79 12.112 31.01C12.5053 31.23 12.8153 31.5433 13.042 31.95C13.2753 32.35 13.392 32.8267 13.392 33.38C13.392 33.9333 13.2787 34.4167 13.052 34.83C12.8253 35.2367 12.5153 35.5533 12.122 35.78C11.7353 36.0067 11.2953 36.12 10.802 36.12ZM10.802 35.32C11.3287 35.32 11.7387 35.1433 12.032 34.79C12.3253 34.43 12.472 33.9667 12.472 33.4C12.472 33.0533 12.3987 32.7367 12.252 32.45C12.1053 32.1567 11.9053 31.9233 11.652 31.75C11.4053 31.57 11.122 31.48 10.802 31.48C10.2753 31.48 9.86533 31.6533 9.57199 32C9.27866 32.3467 9.13199 32.8067 9.13199 33.38C9.13199 33.7267 9.20533 34.05 9.35199 34.35C9.49866 34.6433 9.69533 34.88 9.94199 35.06C10.1953 35.2333 10.482 35.32 10.802 35.32ZM14.7086 36V30.8H15.5786V31.67C15.7652 31.39 16.0019 31.1567 16.2886 30.97C16.5819 30.7767 16.9286 30.68 17.3286 30.68C17.9152 30.68 18.3519 30.8567 18.6386 31.21C18.9319 31.5633 19.0786 32.03 19.0786 32.61V36H18.1786V32.71C18.1786 32.3367 18.0886 32.0367 17.9086 31.81C17.7352 31.5833 17.4919 31.47 17.1786 31.47C16.8719 31.47 16.5819 31.58 16.3086 31.8C16.0352 32.0133 15.8019 32.2667 15.6086 32.56V36H14.7086ZM26.6546 36.12C26.0479 36.12 25.5112 35.9767 25.0446 35.69C24.5779 35.3967 24.2146 34.9833 23.9546 34.45C23.6946 33.91 23.5646 33.27 23.5646 32.53C23.5646 31.8167 23.6946 31.1867 23.9546 30.64C24.2212 30.0867 24.5946 29.6567 25.0746 29.35C25.5612 29.0367 26.1279 28.88 26.7746 28.88C27.1079 28.88 27.4112 28.9133 27.6846 28.98C27.9579 29.04 28.2146 29.1267 28.4546 29.24L28.1646 30.04C27.9579 29.94 27.7446 29.86 27.5246 29.8C27.3112 29.74 27.0579 29.71 26.7646 29.71C26.3379 29.71 25.9546 29.82 25.6146 30.04C25.2812 30.26 25.0179 30.5767 24.8246 30.99C24.6312 31.4033 24.5346 31.9033 24.5346 32.49C24.5346 33.05 24.6279 33.54 24.8146 33.96C25.0079 34.38 25.2712 34.7067 25.6046 34.94C25.9446 35.1733 26.3312 35.29 26.7646 35.29C27.0912 35.29 27.3746 35.25 27.6146 35.17C27.8546 35.09 28.0879 34.9867 28.3146 34.86L28.6046 35.65C28.3579 35.7833 28.0746 35.8967 27.7546 35.99C27.4412 36.0767 27.0746 36.12 26.6546 36.12ZM31.8093 36.12C31.316 36.12 30.8727 36.0067 30.4793 35.78C30.086 35.5467 29.776 35.2267 29.5493 34.82C29.3293 34.4067 29.2193 33.9333 29.2193 33.4C29.2193 32.84 29.3327 32.3567 29.5593 31.95C29.786 31.5433 30.096 31.23 30.4893 31.01C30.8827 30.79 31.3227 30.68 31.8093 30.68C32.296 30.68 32.7327 30.79 33.1193 31.01C33.5127 31.23 33.8227 31.5433 34.0493 31.95C34.2827 32.35 34.3993 32.8267 34.3993 33.38C34.3993 33.9333 34.286 34.4167 34.0593 34.83C33.8327 35.2367 33.5227 35.5533 33.1293 35.78C32.7427 36.0067 32.3027 36.12 31.8093 36.12ZM31.8093 35.32C32.336 35.32 32.746 35.1433 33.0393 34.79C33.3327 34.43 33.4793 33.9667 33.4793 33.4C33.4793 33.0533 33.406 32.7367 33.2593 32.45C33.1127 32.1567 32.9127 31.9233 32.6593 31.75C32.4127 31.57 32.1293 31.48 31.8093 31.48C31.2827 31.48 30.8727 31.6533 30.5793 32C30.286 32.3467 30.1393 32.8067 30.1393 33.38C30.1393 33.7267 30.2127 34.05 30.3593 34.35C30.506 34.6433 30.7027 34.88 30.9493 35.06C31.2027 35.2333 31.4893 35.32 31.8093 35.32ZM35.7159 36V30.8H36.5859V31.67C36.7726 31.39 37.0092 31.1567 37.2959 30.97C37.5826 30.7767 37.9092 30.68 38.2759 30.68C38.6892 30.68 39.0259 30.78 39.2859 30.98C39.5526 31.18 39.7392 31.4467 39.8459 31.78C40.0526 31.4733 40.2959 31.2133 40.5759 31C40.8626 30.7867 41.2159 30.68 41.6359 30.68C42.2026 30.68 42.6226 30.86 42.8959 31.22C43.1759 31.5733 43.3159 32.0367 43.3159 32.61V36H42.4159V32.68C42.4159 32.32 42.3326 32.03 42.1659 31.81C41.9992 31.5833 41.7692 31.47 41.4759 31.47C41.1759 31.47 40.8959 31.5833 40.6359 31.81C40.3826 32.03 40.1592 32.29 39.9659 32.59V36H39.0659V32.68C39.0659 32.32 38.9826 32.03 38.8159 31.81C38.6492 31.5833 38.4192 31.47 38.1259 31.47C37.8326 31.47 37.5559 31.58 37.2959 31.8C37.0359 32.0133 36.8092 32.2667 36.6159 32.56V36H35.7159ZM45.1763 38.2V32.13C45.1763 31.9033 45.1196 31.7433 45.0063 31.65C44.8996 31.55 44.7596 31.5 44.5863 31.5L44.7763 30.8C45.3896 30.8 45.773 31.0433 45.9263 31.53C45.993 31.43 46.0996 31.3133 46.2463 31.18C46.3996 31.0467 46.5863 30.93 46.8063 30.83C47.033 30.73 47.2896 30.68 47.5763 30.68C47.9763 30.68 48.3496 30.7867 48.6963 31C49.0496 31.2067 49.333 31.51 49.5463 31.91C49.7596 32.3033 49.8663 32.7833 49.8663 33.35C49.8663 33.9033 49.7596 34.39 49.5463 34.81C49.333 35.2233 49.053 35.5467 48.7063 35.78C48.3663 36.0067 47.9963 36.12 47.5963 36.12C47.2896 36.12 47.003 36.06 46.7363 35.94C46.4696 35.8133 46.2496 35.67 46.0763 35.51V38.2H45.1763ZM47.4163 35.32C47.8696 35.32 48.2363 35.1433 48.5163 34.79C48.803 34.43 48.9463 33.96 48.9463 33.38C48.9463 32.98 48.873 32.6367 48.7263 32.35C48.5863 32.0633 48.3963 31.8433 48.1563 31.69C47.923 31.5367 47.663 31.46 47.3763 31.46C47.0896 31.46 46.8296 31.5333 46.5963 31.68C46.3696 31.82 46.1963 31.9733 46.0763 32.14V34.7C46.2496 34.88 46.4496 35.03 46.6763 35.15C46.903 35.2633 47.1496 35.32 47.4163 35.32ZM53.0591 36.12C52.5591 36.12 52.1624 35.9567 51.8691 35.63C51.5824 35.2967 51.4391 34.8233 51.4391 34.21V31.77H50.5391V30.99H51.4591L51.6491 29.35H52.3391V30.99H53.7791V31.77H52.3391V34.28C52.3391 34.6667 52.4191 34.9367 52.5791 35.09C52.7458 35.2433 52.9424 35.32 53.1691 35.32C53.3358 35.32 53.4924 35.2933 53.6391 35.24C53.7924 35.1867 53.9324 35.1233 54.0591 35.05L54.3091 35.77C54.1758 35.85 53.9958 35.9267 53.7691 36C53.5424 36.08 53.3058 36.12 53.0591 36.12ZM57.2184 36.12C56.4717 36.12 55.8784 35.8833 55.4384 35.41C55.0051 34.93 54.7884 34.26 54.7884 33.4C54.7884 32.88 54.8851 32.4167 55.0784 32.01C55.2784 31.5967 55.5551 31.2733 55.9084 31.04C56.2617 30.8 56.6717 30.68 57.1384 30.68C57.6384 30.68 58.0517 30.79 58.3784 31.01C58.7117 31.2233 58.9617 31.5133 59.1284 31.88C59.2951 32.2467 59.3784 32.65 59.3784 33.09C59.3784 33.3233 59.3684 33.55 59.3484 33.77H55.7084C55.7684 34.2567 55.9384 34.6367 56.2184 34.91C56.4984 35.1833 56.8684 35.32 57.3284 35.32C57.6284 35.32 57.8984 35.29 58.1384 35.23C58.3784 35.1633 58.6084 35.08 58.8284 34.98L59.0384 35.75C58.7984 35.8567 58.5284 35.9433 58.2284 36.01C57.9284 36.0833 57.5917 36.12 57.2184 36.12ZM55.6984 33.04H58.5484C58.5484 32.5333 58.4217 32.1433 58.1684 31.87C57.9151 31.5967 57.5651 31.46 57.1184 31.46C56.7317 31.46 56.4117 31.5967 56.1584 31.87C55.9051 32.1367 55.7517 32.5267 55.6984 33.04Z" fill="white" fill-opacity="0.87"/>
</svg>
